<?xml version="1.0" encoding="iso-8859-1"?>
<!-- Generator: Adobe Illustrator 19.0.0, SVG Export Plug-In . SVG Version: 6.00 Build 0)  -->
<svg version="1.1" id="Layer_1" xmlns="http://www.w3.org/2000/svg" xmlns:xlink="http://www.w3.org/1999/xlink" x="0px" y="0px"
	 viewBox="0 0 512 512" style="enable-background:new 0 0 512 512;" xml:space="preserve">
<rect x="9.078" y="170.832" style="fill:#FFCA6C;" width="493.844" height="292.314"/>
<path style="fill:#FFEEA9;" d="M472.661,389.355V244.62c-24.04,0-43.527-19.487-43.527-43.527H82.867
	c0,24.04-19.487,43.527-43.527,43.527v144.735c24.04,0,43.527,19.487,43.527,43.527h346.267
	C429.134,408.843,448.621,389.355,472.661,389.355z"/>
<circle style="fill:#DD852C;" cx="256.001" cy="68.976" r="20.12"/>
<path d="M502.922,161.753H361.618l-79.582-79.582c2.018-3.967,3.164-8.448,3.164-13.194c0-16.1-13.098-29.2-29.2-29.2
	c-16.1,0-29.199,13.098-29.199,29.2c0,4.746,1.145,9.227,3.164,13.193l-79.572,79.583H9.078c-5.014,0-9.078,4.065-9.078,9.078
	v39.014c0,5.014,4.065,9.078,9.078,9.078s9.078-4.065,9.078-9.078V179.91h475.686v274.155h-70.862c-5.015,0-9.078,4.065-9.078,9.078
	s4.064,9.078,9.078,9.078h79.94c5.015,0,9.078-4.065,9.078-9.078V170.832C512,165.818,507.936,161.753,502.922,161.753z
	 M256.001,57.935c6.089,0,11.043,4.953,11.043,11.043c0,6.089-4.954,11.042-11.043,11.042s-11.042-4.953-11.042-11.042
	C244.959,62.888,249.912,57.935,256.001,57.935z M176.068,161.753l66.734-66.744c3.967,2.019,8.45,3.165,13.198,3.165
	c4.747,0,9.23-1.146,13.196-3.165l66.742,66.742H176.068V161.753z"/>
<path d="M392.72,454.065H18.157V242.529c0-5.014-4.065-9.078-9.078-9.078S0,237.515,0,242.529v220.614
	c0,5.014,4.065,9.078,9.078,9.078H392.72c5.015,0,9.078-4.065,9.078-9.078S397.735,454.065,392.72,454.065z"/>
<path d="M136.894,366.077c5.014,0,9.078-4.065,9.078-9.078v-80.021c0-5.014-4.065-9.078-9.078-9.078s-9.078,4.065-9.078,9.078
	v30.932h-26.857v-30.932c0-5.014-4.065-9.078-9.078-9.078c-5.014,0-9.078,4.065-9.078,9.078v80.021c0,5.014,4.065,9.078,9.078,9.078
	c5.014,0,9.078-4.065,9.078-9.078v-30.932h26.858v30.932C127.815,362.012,131.88,366.077,136.894,366.077z"/>
<path d="M159.793,299.485v35.007c0,17.416,14.17,31.586,31.586,31.586s31.586-14.17,31.586-31.586v-35.007
	c0-17.416-14.17-31.586-31.586-31.586S159.793,282.067,159.793,299.485z M204.807,299.485v35.007
	c0,7.404-6.024,13.429-13.429,13.429s-13.429-6.024-13.429-13.429v-35.007c0-7.404,6.024-13.429,13.429-13.429
	S204.807,292.079,204.807,299.485z"/>
<path d="M226.145,276.977c0,5.014,4.065,9.078,9.078,9.078h13.428v70.943c0,5.014,4.065,9.078,9.078,9.078
	c5.015,0,9.078-4.065,9.078-9.078v-70.943h13.429c5.015,0,9.078-4.065,9.078-9.078s-4.064-9.078-9.078-9.078h-45.013
	C230.209,267.899,226.145,271.964,226.145,276.977z"/>
<path d="M301.967,276.977v80.021c0,5.014,4.064,9.078,9.078,9.078h45.013c5.015,0,9.078-4.065,9.078-9.078s-4.064-9.078-9.078-9.078
	h-35.935v-21.511h21.612c5.015,0,9.078-4.065,9.078-9.078s-4.064-9.078-9.078-9.078h-21.612v-22.196h35.935
	c5.015,0,9.078-4.065,9.078-9.078s-4.064-9.078-9.078-9.078h-45.013C306.03,267.899,301.967,271.964,301.967,276.977z"/>
<path d="M387.212,267.899c-5.015,0-9.078,4.065-9.078,9.078v80.021c0,5.014,4.064,9.078,9.078,9.078h45.015
	c5.015,0,9.078-4.065,9.078-9.078s-4.064-9.078-9.078-9.078h-35.936v-70.943C396.291,271.964,392.226,267.899,387.212,267.899z"/>
<path d="M183.799,231.529c-3.259-1.942-7.486-1.635-10.423,0.767c-3.053,2.496-4.139,6.857-2.624,10.496
	c1.394,3.351,4.753,5.604,8.388,5.604c4.216,0,7.909-3.01,8.846-7.094C188.851,237.538,187.112,233.504,183.799,231.529z"/>
<path d="M264.801,241.547c0.953-3.728-0.659-7.816-3.911-9.876c-3.426-2.169-7.971-1.804-10.989,0.918
	c-6.061,5.466-1.984,15.81,6.103,15.81C260.11,248.396,263.788,245.513,264.801,241.547z"/>
<path d="M211.808,232.3c-2.799,2.293-3.979,6.183-2.924,9.647c1.15,3.779,4.733,6.448,8.69,6.448c4.292,0,8.04-3.127,8.897-7.311
	C228.139,232.92,218.25,227.022,211.808,232.3z"/>
<path d="M299.095,231.529c-3.26-1.943-7.484-1.634-10.423,0.767c-3.053,2.495-4.139,6.858-2.624,10.496
	c1.394,3.351,4.755,5.604,8.39,5.604c4.217,0,7.908-3.012,8.846-7.094C304.148,237.539,302.409,233.504,299.095,231.529z"/>
<path d="M341.821,240.814c0.616-3.637-1.126-7.395-4.294-9.284c-3.639-2.17-8.472-1.49-11.347,1.635
	c-5.245,5.7-1.046,15.232,6.688,15.232C337.252,248.396,341.091,245.118,341.821,240.814z"/>
<path d="M173.238,387.756c-2.703,2.299-3.83,6.147-2.788,9.541c1.162,3.788,4.727,6.438,8.69,6.438c4.618,0,8.565-3.604,9.032-8.189
	C188.983,387.591,179.319,382.586,173.238,387.756z"/>
<path d="M250.664,387.317c-3.089,2.225-4.465,6.342-3.348,9.98c1.16,3.781,4.727,6.438,8.69,6.438c4.21,0,7.909-2.996,8.846-7.082
	C266.691,388.632,257.292,382.543,250.664,387.317z"/>
<path d="M212.232,387.317c-3.157,2.273-4.508,6.503-3.279,10.19c1.227,3.679,4.734,6.228,8.62,6.228c4.123,0,7.782-2.88,8.796-6.866
	C228.424,388.79,218.95,382.48,212.232,387.317z"/>
<path d="M288.81,387.531c-3.025,2.366-4.226,6.578-2.924,10.187c1.289,3.574,4.747,6.017,8.551,6.017
	c4.377,0,8.168-3.232,8.937-7.522C304.815,388.157,295.198,382.536,288.81,387.531z"/>
<path d="M327.28,387.506c-3.181,2.455-4.344,6.921-2.801,10.625c1.401,3.36,4.745,5.604,8.39,5.604c4.54,0,8.432-3.476,9.005-7.966
	C342.883,387.862,333.499,382.708,327.28,387.506z"/>
<path d="M167.574,192.015H82.867c-5.014,0-9.078,4.065-9.078,9.078c0,18.995-15.454,34.449-34.449,34.449
	c-5.014,0-9.078,4.065-9.078,9.078v144.735c0,5.014,4.065,9.078,9.078,9.078c18.995,0,34.449,15.454,34.449,34.449
	c0,5.014,4.065,9.078,9.078,9.078h346.267c5.015,0,9.078-4.065,9.078-9.078c0-18.995,15.454-34.449,34.449-34.449
	c5.015,0,9.078-4.065,9.078-9.078V244.62c0-5.014-4.064-9.078-9.078-9.078c-18.995,0-34.449-15.454-34.449-34.449
	c0-5.014-4.064-9.078-9.078-9.078H197.835c-5.014,0-9.078,4.065-9.078,9.078s4.065,9.078,9.078,9.078h223.002
	c3.798,21.747,20.997,38.945,42.744,42.744v128.146c-21.747,3.798-38.945,20.997-42.744,42.744H91.162
	c-3.798-21.748-20.997-38.947-42.744-42.745V252.915c21.747-3.798,38.945-20.997,42.744-42.744h76.413
	c5.014,0,9.078-4.065,9.078-9.078S172.589,192.015,167.574,192.015z"/>
<g>
</g>
<g>
</g>
<g>
</g>
<g>
</g>
<g>
</g>
<g>
</g>
<g>
</g>
<g>
</g>
<g>
</g>
<g>
</g>
<g>
</g>
<g>
</g>
<g>
</g>
<g>
</g>
<g>
</g>
</svg>
